0
SECTION
2
HEADER
9
$INSUNITS
70
4
9
$ACADVER
1
AC1014
9
$HANDSEED
5
FFFF
0
ENDSEC
0
SECTION
2
TABLES
0
TABLE
2
VPORT
5
8
100
AcDbSymbolTable
0
ENDTAB
0
TABLE
2
LTYPE
5
5
100
AcDbSymbolTable
0
LTYPE
5
14
100
AcDbSymbolTableRecord
100
AcDbLinetypeTableRecord
2
BYBLOCK
70
0
0
LTYPE
5
15
100
AcDbSymbolTableRecord
100
AcDbLinetypeTableRecord
2
BYLAYER
70
0
0
ENDTAB
0
TABLE
2
LAYER
5
2
100
AcDbSymbolTable
70
2
0
LAYER
5
50
100
AcDbSymbolTableRecord
100
AcDbLayerTableRecord
2
0
70
0
6
CONTINUOUS
0
ENDTAB
0
TABLE
2
STYLE
5
3
100
AcDbSymbolTable
70
1
0
STYLE
5
11
100
AcDbSymbolTableRecord
100
AcDbTextStyleTableRecord
2
STANDARD
70
0
0
ENDTAB
0
TABLE
2
VIEW
5
6
100
AcDbSymbolTable
70
0
0
ENDTAB
0
TABLE
2
UCS
5
7
100
AcDbSymbolTable
70
0
0
ENDTAB
0
TABLE
2
APPID
5
9
100
AcDbSymbolTable
70
2
0
APPID
5
12
100
AcDbSymbolTableRecord
100
AcDbRegAppTableRecord
2
ACAD
70
0
0
ENDTAB
0
TABLE
2
DIMSTYLE
5
A
100
AcDbSymbolTable
70
1
0
ENDTAB
0
TABLE
2
BLOCK_RECORD
5
1
100
AcDbSymbolTable
70
1
0
BLOCK_RECORD
5
1F
100
AcDbSymbolTableRecord
100
AcDbBlockTableRecord
2
*MODEL_SPACE
0
BLOCK_RECORD
5
1B
100
AcDbSymbolTableRecord
100
AcDbBlockTableRecord
2
*PAPER_SPACE
0
ENDTAB
0
ENDSEC
0
SECTION
2
BLOCKS
0
BLOCK
5
20
100
AcDbEntity
100
AcDbBlockBegin
2
*MODEL_SPACE
0
ENDBLK
5
21
100
AcDbEntity
100
AcDbBlockEnd
0
BLOCK
5
1C
100
AcDbEntity
100
AcDbBlockBegin
2
*PAPER_SPACE
0
ENDBLK
5
1D
100
AcDbEntity
100
AcDbBlockEnd
0
ENDSEC
0
SECTION
2
ENTITIES
0
LINE
5
100
100
AcDbEntity
8
0
100
AcDbLine
10
178.19298736820798
20
-100.00000000000001
30
0
11
-200
21
-100.00000000000001
31
0
0
LINE
5
101
100
AcDbEntity
8
0
100
AcDbLine
10
-200
20
-100.00000000000001
30
0
11
-200
21
100
31
0
0
LINE
5
102
100
AcDbEntity
8
0
100
AcDbLine
10
-200
20
100
30
0
11
75.154551002673585
21
100.00000000000001
31
0
0
CIRCLE
5
103
100
AcDbEntity
8
0
100
AcDbCircle
10
-139.46481621784901
20
-79.99974607792997
30
0
40
18.5
210
0
220
0
230
1
0
CIRCLE
5
104
100
AcDbEntity
8
0
100
AcDbCircle
10
-139.5
20
-87.000000000000028
30
0
40
6.5
210
0
220
0
230
1
0
CIRCLE
5
105
100
AcDbEntity
8
0
100
AcDbCircle
10
-139.46481621784901
20
-79.99974607792997
30
0
40
15.5
210
0
220
0
230
1
0
CIRCLE
5
106
100
AcDbEntity
8
0
100
AcDbCircle
10
-139.5
20
-87.000000000000028
30
0
40
48.500000000000007
210
0
220
0
230
1
0
CIRCLE
5
107
100
AcDbEntity
8
0
100
AcDbCircle
10
125.5
20
-87
30
0
40
48.500000000000007
210
0
220
0
230
1
0
CIRCLE
5
108
100
AcDbEntity
8
0
100
AcDbCircle
10
110.03518378215098
20
-79.99974607792997
30
0
40
1.5000000000000002
210
0
220
0
230
1
0
CIRCLE
5
109
100
AcDbEntity
8
0
100
AcDbCircle
10
125.53518378215099
20
-79.99974607792997
30
0
40
18.5
210
0
220
0
230
1
0
CIRCLE
5
110
100
AcDbEntity
8
0
100
AcDbCircle
10
125.53518378215099
20
-79.99974607792997
30
0
40
15.5
210
0
220
0
230
1
0
CIRCLE
5
111
100
AcDbEntity
8
0
100
AcDbCircle
10
141.03518378215099
20
-79.99974607792997
30
0
40
1.5000000000000002
210
0
220
0
230
1
0
CIRCLE
5
112
100
AcDbEntity
8
0
100
AcDbCircle
10
125.5
20
-87
30
0
40
6.5
210
0
220
0
230
1
0
CIRCLE
5
113
100
AcDbEntity
8
0
100
AcDbCircle
10
-154.96481621784903
20
-79.99974607792997
30
0
40
1.5000000000000002
210
0
220
0
230
1
0
CIRCLE
5
114
100
AcDbEntity
8
0
100
AcDbCircle
10
-123.96481621784901
20
-79.99974607792997
30
0
40
1.5000000000000002
210
0
220
0
230
1
0
CIRCLE
5
115
100
AcDbEntity
8
0
100
AcDbCircle
10
-131.70769177906149
20
-66.580468137550113
30
0
40
1.5000000000000002
210
0
220
0
230
1
0
LINE
5
116
100
AcDbEntity
8
0
100
AcDbLine
10
-139.46481621784901
20
-79.99974607792997
30
0
11
-114.55663954107411
21
-123.10042978044353
31
0
0
CIRCLE
5
117
100
AcDbEntity
8
0
100
AcDbCircle
10
-131.70921569853707
20
-93.419904817112155
30
0
40
1.5000000000000002
210
0
220
0
230
1
0
CIRCLE
5
118
100
AcDbEntity
8
0
100
AcDbCircle
10
133.28871245994546
20
-93.421101935019024
30
0
40
1.5000000000000002
210
0
220
0
230
1
0
CIRCLE
5
119
100
AcDbEntity
8
0
100
AcDbCircle
10
133.26952187917388
20
-66.56732208964921
30
0
40
1.5000000000000002
210
0
220
0
230
1
0
LINE
5
120
100
AcDbEntity
8
0
100
AcDbLine
10
-200
20
-100.00000000000001
30
0
11
-200
21
-193.17746208235627
31
0
0
ARC
5
121
100
AcDbEntity
8
0
100
AcDbCircle
10
74.61611552616813
20
-25.311990623628489
30
0
40
125.42286560483896
210
0
220
-0
230
1
100
AcDbArc
50
87.5906602330802
51
92.409339766919771
0
ARC
5
122
100
AcDbEntity
8
0
100
AcDbCircle
10
72.585782259686567
20
-26.755003049159143
30
0
40
130.57550093356889
210
0
220
0
230
1
100
AcDbArc
50
236.22787415104861
51
236.38881254215428
0
ARC
5
123
100
AcDbEntity
8
0
100
AcDbCircle
10
71.457839737029119
20
-28.446815164170005
30
0
40
128.5
210
0
220
0
230
1
100
AcDbArc
50
-33.837137779733368
51
91.648522800606102
0
LINE
5
124
100
AcDbEntity
8
0
100
AcDbLine
10
91.5027107908831
20
-121.58951179811105
30
0
11
97.585782259686553
21
-121.58951179811105
31
0
0
LWPOLYLINE
5
125
100
AcDbEntity
8
0
100
AcDbPolyline
90
3
70
1
43
0.0
10
171.36149702320236
20
-50.616756162817147
10
72.585782259686539
20
-50.616756162817119
10
72.585782259686567
20
74.667395985947294
42
-0.49760846330132841
0
CIRCLE
5
126
100
AcDbEntity
8
0
100
AcDbCircle
10
-181.5
20
30
30
0
40
2.5
210
0
220
0
230
1
0
CIRCLE
5
127
100
AcDbEntity
8
0
100
AcDbCircle
10
45
20
17.999999999999989
30
0
40
2.5
210
0
220
0
230
1
0
LINE
5
128
100
AcDbEntity
8
0
100
AcDbLine
10
-139.5
20
-121.58951179811105
30
0
11
-139.5
21
-38.500000000000021
31
0
0
CIRCLE
5
129
100
AcDbEntity
8
0
100
AcDbCircle
10
-147.29078430146293
20
-93.419904817112155
30
0
40
1.5000000000000002
210
0
220
0
230
1
0
CIRCLE
5
130
100
AcDbEntity
8
0
100
AcDbCircle
10
-147.29230822093851
20
-66.580468137550113
30
0
40
1.5000000000000002
210
0
220
0
230
1
0
LINE
5
131
100
AcDbEntity
8
0
100
AcDbLine
10
125.5
20
-121.58951179811105
30
0
11
125.5
21
-50.61675616281714
31
0
0
CIRCLE
5
132
100
AcDbEntity
8
0
100
AcDbCircle
10
117.73047812082615
20
-66.56732208964921
30
0
40
1.5000000000000002
210
0
220
0
230
1
0
CIRCLE
5
133
100
AcDbEntity
8
0
100
AcDbCircle
10
117.71128754005457
20
-93.421101935019024
30
0
40
1.5000000000000002
210
0
220
0
230
1
0
ENDSEC
0
SECTION
2
OBJECTS
0
DICTIONARY
5
C
100
AcDbDictionary
3
ACAD_GROUP
350
D
3
ACAD_MLINESTYLE
350
17
0
DICTIONARY
5
D
100
AcDbDictionary
0
DICTIONARY
5
1A
330
C
100
AcDbDictionary
0
DICTIONARY
5
17
100
AcDbDictionary
0
ENDSEC
0
EOF
